<?xml version="1.0" standalone="no"?>
<!DOCTYPE svg PUBLIC "-//W3C//DTD SVG 20010904//EN"
 "http://www.w3.org/TR/2001/REC-SVG-20010904/DTD/svg10.dtd">
<svg version="1.0" xmlns="http://www.w3.org/2000/svg"
 width="500.000000pt" height="500.000000pt" viewBox="0 0 500.000000 500.000000"
 preserveAspectRatio="xMidYMid meet">
<rect x="0" y="0" width="500" height="500" rx="150" ry="150" stroke="#ffffff" stroke-width="1" fill="#ffffff"></rect>
<g transform="translate(0.000000,500.000000) scale(0.100000,-0.100000)"
fill="#000000" stroke="none">
<path d="M2295 4314 c-106 -21 -138 -30 -194 -57 -160 -76 -271 -256 -271
-439 l0 -58 165 0 165 0 0 38 c1 90 58 180 132 212 73 31 178 26 235 -12 54
-36 84 -101 85 -185 0 -81 -34 -156 -100 -214 -36 -32 -339 -241 -373 -257 -3
-1 -26 32 -51 75 -94 162 -252 299 -420 363 -157 61 -239 73 -478 74 -169 1
-234 -3 -305 -17 -366 -73 -587 -260 -671 -567 -24 -89 -25 -317 -1 -414 57
-231 208 -370 508 -470 57 -19 232 -64 389 -101 493 -114 562 -143 623 -260
30 -58 29 -164 -2 -227 -67 -138 -234 -207 -506 -208 -314 0 -509 123 -547
347 l-12 73 -258 0 -259 0 7 -77 c31 -353 245 -616 589 -722 103 -32 280 -60
424 -67 404 -20 769 110 945 336 113 147 158 288 158 504 0 337 -161 539 -522
654 -52 17 -269 73 -482 126 -226 55 -407 105 -436 120 -91 46 -132 116 -132
223 1 124 63 207 199 265 70 29 86 32 217 36 213 7 348 -30 443 -121 51 -49
98 -142 107 -209 l7 -48 99 0 c92 0 100 -2 93 -17 -18 -43 -43 -143 -49 -200
l-7 -63 377 -2 378 -3 -5 -70 c-9 -159 0 -400 20 -515 55 -317 160 -530 351
-714 98 -95 162 -139 283 -197 292 -138 737 -141 1030 -6 237 110 433 321 539
581 30 74 68 214 68 254 l0 22 -266 -2 -266 -3 -29 -91 c-87 -272 -285 -406
-578 -391 -254 12 -425 145 -532 413 -97 247 -102 648 -11 914 44 126 132 265
209 326 120 97 224 128 403 122 191 -7 295 -50 399 -164 57 -62 102 -144 122
-225 l13 -49 268 0 268 0 0 33 c0 17 -7 61 -15 97 -99 421 -442 713 -905 770
-406 49 -760 -57 -1000 -302 -117 -118 -220 -282 -275 -433 -10 -27 -21 -53
-25 -58 -4 -4 -82 -6 -175 -5 l-168 3 34 34 c19 19 119 91 224 159 335 221
425 344 425 582 0 136 -41 239 -129 330 -66 67 -166 121 -265 144 -61 15 -228
20 -281 10z"/>
</g>
</svg>
